<svg xmlns="http://www.w3.org/2000/svg" width="1440" height="560" preserveAspectRatio="none"><g mask="url(&quot;#SvgjsMask1002&quot;)" fill="none"><path fill="url(#SvgjsLinearGradient1003)" d="M0 0h1440v560H0z"/><path d="m-33.25 43.976 63.73 81.571 81.57-63.73-63.73-81.57z" fill="rgba(5, 63, 94, 1)" class="triangle-float3"/><path d="m155.317 406.454-26.61-52.224-65.031 66.026z" fill="rgba(5, 63, 94, 1)" style="animation:float1 5s infinite"/><path d="M741.08 529.11a156.06 156.06 0 1 0 312.12 0 156.06 156.06 0 1 0-312.12 0zM98.994 595.526c40.287.071 85.905-1.603 106.859-36.012 21.493-35.294 5.599-78.907-15.093-114.676-20.653-35.702-50.522-70.29-91.766-70.05-40.96.238-69.489 35.613-89.937 71.105-20.404 35.417-37.326 78.211-16.269 113.244 20.663 34.377 66.097 36.318 106.206 36.389" fill="rgba(5, 63, 94, 1)" class="triangle-float3"/><path d="M689.849 504.473c17.622.381 36.246-4.813 45.069-20.072 8.831-15.272 3.354-33.614-5.059-49.121-8.94-16.479-21.288-32.966-40.01-33.954-20.083-1.06-38.852 11.428-48.06 29.307-8.55 16.601-3.946 36.242 6.24 51.892 9.204 14.141 24.951 21.584 41.82 21.948" fill="rgba(5, 63, 94, 1)" class="triangle-float2"/><path d="m561.806 415.412-145.857-71.139L344.81 490.13l145.857 71.139z" fill="rgba(5, 63, 94, 1)" class="triangle-float3"/><path d="M779.965 53.699c16.005-.972 24.42-17.548 31.571-31.899 6.155-12.353 10.083-26.345 3.492-38.471-6.854-12.611-20.724-18.987-35.063-19.612-15.678-.683-32.467 3.002-40.786 16.308-8.73 13.964-6.183 31.652 1.793 46.06 8.268 14.934 21.954 28.649 38.993 27.614M746.73 255.74a152.02 152.02 0 1 0 304.04 0 152.02 152.02 0 1 0-304.04 0z" fill="rgba(5, 63, 94, 1)" class="triangle-float2"/><path d="M162.713 102.83 139.756-27.37 32.516 125.787z" fill="rgba(5, 63, 94, 1)" class="triangle-float3"/><path d="M737.654 78.621c17.854.744 33.666-11.482 41.875-27.354 7.595-14.685 5.134-32.252-3.876-46.114-8.212-12.635-22.952-17.488-37.999-18.308-17.098-.932-37.191-.996-45.918 13.736-8.815 14.88.91 32.526 9.681 47.432 8.594 14.606 19.305 29.902 36.237 30.608M875.25 84.535l89.558-43.68-43.68-89.558-89.557 43.68z" fill="rgba(5, 63, 94, 1)" class="triangle-float2"/></g><defs><linearGradient x1="84.72%" y1="-39.29%" x2="15.28%" y2="139.29%" gradientUnits="userSpaceOnUse" id="SvgjsLinearGradient1003"><stop stop-color="#0e2a47" offset="0"/><stop stop-color="rgba(2, 45, 67, 1)" offset="1"/></linearGradient><style>@keyframes float1{0%,to{transform:translate(0,0)}50%{transform:translate(-10px,0)}}@keyframes float2{0%,to{transform:translate(0,0)}50%{transform:translate(-5px,-5px)}}@keyframes float3{0%,to{transform:translate(0,0)}50%{transform:translate(0,-10px)}}.triangle-float2{animation:float2 4s infinite}.triangle-float3{animation:float3 6s infinite}</style><mask id="SvgjsMask1002"><path fill="#fff" d="M0 0h1440v560H0z"/></mask></defs></svg>